<?xml version="1.0" encoding="utf-8"?>
<svg xmlns="http://www.w3.org/2000/svg" viewBox="12.1799 64.8641 200.5164 207.45" width="200.5164px" height="207.45px">
  <g transform="matrix(0.9276189804077148, 0, 0, 0.9276189804077148, 6.879930019378662, 59.68718338012695)">
    <path fill-rule="evenodd" clip-rule="evenodd" fill="#233E83" d="M136.99,55.724c-3.436,0-6.906,0-10.338,0 c-35.5-1.394-70.042-7.99-105.168-10.802c-3.105,0-6.112,0-9.107,0.064C20.895,26.854,34.155,13.46,62.254,6.569 c45.151-5.782,80.604,14.802,107.114,35.902C169.368,52.252,148.629,55.349,136.99,55.724z"/>
  </g>
  <g transform="matrix(0.9276189804077148, 0, 0, 0.9276189804077148, 6.879930019378662, 59.68718338012695)">
    <path fill-rule="evenodd" clip-rule="evenodd" fill="#233E83" d="M208.446,208.26c-6.802,2.235-11.536,3.097-12.002,3.405 c-13.009,0.814-21.874-0.876-33.72-3.858c-4.168-1.612-8.322-3.173-12.332-4.724c-48.486-22.595-82.802-57.258-114.483-89.25 c-5.305-5.756-10.596-11.474-15.906-17.163c-0.573-1.109-1.387-2.001-0.573-3.033c3.225,0.721,5.521,1.563,8.407,2.799 c0-1.457-3.22-3.457-4.486-4.581c-0.458-0.825-0.915-1.547-1.373-2.297c3.774,0.531,7.375,1.846,11.285,1.537 c-0.116-0.865-0.226-1.742-0.226-2.659c-6.227-9.395-16.253-18.065-25.583-26.352C5.154,67.401,5.838,74.448,5.729,79.87 c0.226,3.394,0.471,6.877,0.807,10.361c2.987,19.912,10.131,38.198,20.842,56.872c0.458,0.645,0.928,1.318,1.393,2.053 c0.104,0.296,0.323,0.62,0.582,0.903l-0.017,0.869c3.098,0.077,6.274,0.064,9.327,0.021v12.597h0.805 c0.646,1.314,1.382,2.375,2.298,3.693c0.426,0.604,0.929,1.17,1.523,1.841c23.699,26.445,55.941,54.372,105.723,60.138h16.686 c19.125-2.092,32.14-8.903,43.428-18.722c1.022-1.359,2.192-2.688,3.336-3.939C211.091,207.071,209.703,207.678,208.446,208.26z"/>
  </g>
  <g transform="matrix(0.9276189804077148, 0, 0, 0.9276189804077148, 6.879930019378662, 59.68718338012695)">
    <path fill-rule="evenodd" clip-rule="evenodd" fill="#367F3E" d="M127.909,159.533c-7.479-1.628-13.84-3.538-20.271-6.493 c-28.915-15.344-52.06-34.535-75.217-53.324c1.251,0.311,13.485,6.582,23.383,11.332c2.426,0.877,5.872,2.723,8.866,2.451 c0-3.794-4.265-8.376-6.11-12c-1.375-7.704,0.923-10.389,9.44-15.034c29.733-10.299,66.336-8.827,91.348-24.881 c1.496-1.251,2.988-2.518,4.602-3.704c3.342-3.768,6.683-7.718,7.743-11.988c0.201-0.311,0.436-0.607,0.784-0.826 c24.316,20.519,38.813,44.729,49.399,69.313c-0.106,0.219-0.235,0.438-0.235,0.656c-14.834,3.575-26.823,8.157-38.801,14.74 c-0.348,0.464-3.342,2.076-13.934,9.639c-9.319,7.408-9.319,7.408-19.127,14.584C142.525,158.06,137.802,159.389,127.909,159.533z"/>
  </g>
  <g transform="matrix(0.9276189804077148, 0, 0, 0.9276189804077148, 6.879930019378662, 59.68718338012695)">
    <path fill-rule="evenodd" clip-rule="evenodd" fill="#367F3E" d="M24.469,194.501c0-4.812,0-9.547,0-14.296 c4.724,0,9.44,0,14.164,0c0,4.749,0,9.484,0,14.296C33.909,194.501,29.193,194.501,24.469,194.501z"/>
  </g>
  <g transform="matrix(0.9276189804077148, 0, 0, 0.9276189804077148, 6.879930019378662, 59.68718338012695)">
    <path fill-rule="evenodd" clip-rule="evenodd" fill="#367F3E" d="M24.469,165.224c0-4.812,0-9.547,0-14.296 c4.724,0,9.44,0,14.164,0c0,4.749,0,9.484,0,14.296C33.909,165.224,29.193,165.224,24.469,165.224z"/>
  </g>
  <g transform="matrix(0.9276189804077148, 0, 0, 0.9276189804077148, 6.879930019378662, 59.68718338012695)">
    <g>
      <path fill-rule="evenodd" clip-rule="evenodd" fill="#233E83" d="M176.456,180.15c-0.116-15.313-0.116-15.313,0.232-15.313 C176.588,169.893,176.456,175.029,176.456,180.15z"/>
    </g>
  </g>
</svg>